<svg id="firewall" xmlns="http://www.w3.org/2000/svg" width="74.717" height="70" viewBox="0 0 74.717 70">
  <defs>
    <style>
      #firewall .a{fill:#00b388;}
      #firewall .b{opacity:0.15;}
      #firewall .c{fill:#19d9ab;}
      #firewall .d{fill:#dc6c84;}
      #firewall .e{opacity:0.2;}
      #firewall .f{fill:#fff;}
      #firewall .g{fill:#001a70;}
      #firewall .h{opacity:0.1;}
      #firewall .i{fill:#b3b3b3;}
    </style>
  </defs>
  <g transform="translate(0 -16.162)">
    <path class="a" d="M72.827,189.2H1.889A1.889,1.889,0,0,1,0,187.313V138.7a1.889,1.889,0,0,1,1.889-1.889H72.827a1.889,1.889,0,0,1,1.889,1.889v48.615A1.889,1.889,0,0,1,72.827,189.2Z" transform="translate(0 -103.041)"/>
    <path class="b" d="M13.824,155.634H31.456a1.889,1.889,0,0,0,1.889-1.889v-5.387a1.889,1.889,0,0,0-1.889-1.889H13.824a1.889,1.889,0,0,0-1.889,1.889v5.387A1.889,1.889,0,0,0,13.824,155.634Zm-7.132-1.89v-5.387A1.889,1.889,0,0,0,4.8,146.468H.5a1.877,1.877,0,0,0-.448.056,1.9,1.9,0,0,0-.049.424v8.686H4.8A1.889,1.889,0,0,0,6.692,153.745Zm33.786,1.89H58.109A1.889,1.889,0,0,0,60,153.745v-5.387a1.889,1.889,0,0,0-1.889-1.889H40.478a1.889,1.889,0,0,0-1.889,1.889v5.387A1.889,1.889,0,0,0,40.478,155.634ZM13.824,175.286a1.889,1.889,0,0,0-1.889,1.889v5.387a1.889,1.889,0,0,0,1.889,1.889H31.456a1.889,1.889,0,0,0,1.889-1.889v-5.387a1.889,1.889,0,0,0-1.889-1.889Zm30.958-14.409H27.151a1.889,1.889,0,0,0-1.889,1.889v5.387a1.889,1.889,0,0,0,1.889,1.889H44.783a1.889,1.889,0,0,0,1.889-1.889v-5.387A1.889,1.889,0,0,0,44.783,160.877Zm-6.194,16.3v5.387a1.889,1.889,0,0,0,1.889,1.889H58.109A1.889,1.889,0,0,0,60,182.563v-5.387a1.889,1.889,0,0,0-1.889-1.889H40.478A1.889,1.889,0,0,0,38.588,177.176Zm-20.459-7.132a1.889,1.889,0,0,0,1.889-1.889v-5.387a1.889,1.889,0,0,0-1.889-1.889H.5a1.886,1.886,0,0,0-.5.068v9.029a1.886,1.886,0,0,0,.5.068H18.129Zm33.786,21.542v5.387a1.884,1.884,0,0,0,.064.48H72.827a1.889,1.889,0,0,0,1.889-1.889V189.7H53.8A1.89,1.89,0,0,0,51.915,191.585Zm0-28.818v5.387a1.889,1.889,0,0,0,1.889,1.889H74.717v-9.166H53.8A1.889,1.889,0,0,0,51.915,162.767Zm13.327,14.409v5.387a1.889,1.889,0,0,0,1.889,1.889h7.586v-9.166H67.131A1.889,1.889,0,0,0,65.242,177.176Zm9.411-30.708H67.131a1.889,1.889,0,0,0-1.889,1.889v5.387a1.889,1.889,0,0,0,1.889,1.889h7.586v-8.686A1.884,1.884,0,0,0,74.653,146.468ZM44.783,189.7H27.151a1.889,1.889,0,0,0-1.889,1.889v5.387a1.891,1.891,0,0,0,.064.48H46.608a1.886,1.886,0,0,0,.064-.48v-5.387A1.89,1.89,0,0,0,44.783,189.7Zm-26.653,0H.5a1.885,1.885,0,0,0-.5.068v5.8a1.889,1.889,0,0,0,1.889,1.889H19.955a1.886,1.886,0,0,0,.064-.48v-5.387A1.889,1.889,0,0,0,18.129,189.7ZM6.692,182.563v-5.387A1.889,1.889,0,0,0,4.8,175.286H0v9.166H4.8A1.889,1.889,0,0,0,6.692,182.563Z" transform="translate(0 -111.291)"/>
    <g transform="translate(0 33.768)">
      <path class="c" d="M202.164,433.027H184.532a1.889,1.889,0,0,0-1.889,1.889V440.3a1.889,1.889,0,0,0,1.889,1.889h17.631a1.889,1.889,0,0,0,1.889-1.889v-5.387A1.889,1.889,0,0,0,202.164,433.027Z" transform="translate(-155.99 -389.8)"/>
      <path class="c" d="M19.521,433.027H1.889A1.889,1.889,0,0,0,0,434.917V440.3a1.889,1.889,0,0,0,1.889,1.889H19.521A1.889,1.889,0,0,0,21.41,440.3v-5.387A1.889,1.889,0,0,0,19.521,433.027Z" transform="translate(0 -389.8)"/>
      <path class="c" d="M367.175,433.027h17.631a1.889,1.889,0,0,1,1.889,1.889V440.3a1.889,1.889,0,0,1-1.889,1.889H367.175a1.889,1.889,0,0,1-1.889-1.889v-5.387A1.889,1.889,0,0,1,367.175,433.027Z" transform="translate(-311.979 -389.8)"/>
      <path class="c" d="M110.843,334.288H93.211a1.889,1.889,0,0,0-1.889,1.889v5.387a1.889,1.889,0,0,0,1.889,1.889h17.631a1.889,1.889,0,0,0,1.889-1.889v-5.387A1.889,1.889,0,0,0,110.843,334.288Z" transform="translate(-77.995 -305.47)"/>
      <path class="c" d="M6.194,334.288H0v9.166H6.194a1.889,1.889,0,0,0,1.889-1.889v-5.388A1.889,1.889,0,0,0,6.194,334.288Z" transform="translate(0 -305.47)"/>
      <path class="c" d="M464.69,334.288H458.5a1.889,1.889,0,0,0-1.889,1.889v5.387a1.889,1.889,0,0,0,1.889,1.889h6.194Z" transform="translate(-389.973 -305.47)"/>
      <path class="c" d="M275.853,334.288h17.631a1.889,1.889,0,0,1,1.889,1.889v5.387a1.889,1.889,0,0,1-1.889,1.889H275.853a1.889,1.889,0,0,1-1.889-1.889v-5.387A1.889,1.889,0,0,1,275.853,334.288Z" transform="translate(-233.984 -305.47)"/>
      <path class="d" d="M202.164,235.548H184.532a1.889,1.889,0,0,0-1.889,1.889v5.387a1.889,1.889,0,0,0,1.889,1.889h17.631a1.889,1.889,0,0,0,1.889-1.889v-5.387A1.889,1.889,0,0,0,202.164,235.548Z" transform="translate(-155.99 -221.139)"/>
      <path class="c" d="M19.521,235.548H1.889A1.889,1.889,0,0,0,0,237.437v5.387a1.889,1.889,0,0,0,1.889,1.889H19.521a1.889,1.889,0,0,0,1.889-1.889v-5.387A1.889,1.889,0,0,0,19.521,235.548Z" transform="translate(0 -221.139)"/>
      <path class="c" d="M367.175,235.548h17.631a1.889,1.889,0,0,1,1.889,1.889v5.387a1.889,1.889,0,0,1-1.889,1.889H367.175a1.889,1.889,0,0,1-1.889-1.889v-5.387A1.889,1.889,0,0,1,367.175,235.548Z" transform="translate(-311.979 -221.139)"/>
      <path class="c" d="M110.843,136.809H93.211a1.889,1.889,0,0,0-1.889,1.889v5.387a1.889,1.889,0,0,0,1.889,1.889h17.631a1.889,1.889,0,0,0,1.889-1.889V138.7A1.889,1.889,0,0,0,110.843,136.809Z" transform="translate(-77.995 -136.809)"/>
      <path class="c" d="M6.194,136.809h-4.3A1.889,1.889,0,0,0,0,138.7v7.277H6.194a1.889,1.889,0,0,0,1.889-1.889V138.7A1.889,1.889,0,0,0,6.194,136.809Z" transform="translate(0 -136.809)"/>
      <path class="c" d="M462.8,136.809h-4.3a1.889,1.889,0,0,0-1.889,1.889v5.387a1.889,1.889,0,0,0,1.889,1.889h6.194V138.7A1.89,1.89,0,0,0,462.8,136.809Z" transform="translate(-389.974 -136.809)"/>
      <path class="c" d="M275.853,136.809h17.631a1.889,1.889,0,0,1,1.889,1.889v5.387a1.889,1.889,0,0,1-1.889,1.889H275.853a1.889,1.889,0,0,1-1.889-1.889V138.7A1.89,1.89,0,0,1,275.853,136.809Z" transform="translate(-233.984 -136.809)"/>
    </g>
    <circle class="e" cx="19.068" cy="19.068" r="19.068" transform="translate(16.62 33.031)"/>
    <circle class="f" cx="18.7" cy="18.7" r="18.7" transform="translate(18.658 28.779)"/>
    <path class="g" d="M139.541,134.2a19.9,19.9,0,1,1,19.9-19.9A19.922,19.922,0,0,1,139.541,134.2Zm0-37.4a17.5,17.5,0,1,0,17.5,17.5A17.519,17.519,0,0,0,139.541,96.8Z" transform="translate(-102.183 -66.825)"/>
    <path class="h" d="M167.427,98l1.63-1.855a4.783,4.783,0,0,0,.85-1.393,19.753,19.753,0,0,0-3.166.774c-.018.136-.04.273-.07.409l-.336,1.512A.632.632,0,0,0,167.427,98ZM182.9,108.657h0a28.393,28.393,0,0,1-2.289-12.652,19.768,19.768,0,0,0-6.782-1.482,12.488,12.488,0,0,0-1.2,2.439,14.746,14.746,0,0,0-.887,5.038v4.088a2.947,2.947,0,0,1-5.894,0V105.2a8.118,8.118,0,0,0-.488-2.773h0a6.88,6.88,0,0,0-3.973-4.062h0a.67.67,0,0,0-.079-.025q-.386.282-.757.583a.618.618,0,0,0,.016.156,18.54,18.54,0,0,1-.4,9.957l-.383,1.186a19.022,19.022,0,0,0-.92,5.844,12.785,12.785,0,0,0,25.57,0A18.71,18.71,0,0,0,182.9,108.657Z" transform="translate(-135.675 -66.927)"/>
    <g transform="translate(24.573 16.162)">
      <path class="i" d="M181.269,64.463a2.947,2.947,0,1,1-5.894,0v-.886a8.116,8.116,0,0,0-.488-2.773h0a6.88,6.88,0,0,0-3.973-4.062h0a.614.614,0,0,0-.821.714h0a18.54,18.54,0,0,1-.4,9.957l-.383,1.186a19.02,19.02,0,0,0-.92,5.844,12.785,12.785,0,1,0,25.57,0,18.7,18.7,0,0,0-1.531-7.412h0a28.4,28.4,0,0,1-1.564-17.777h0a1.116,1.116,0,0,0-1.491-1.3h0a12.5,12.5,0,0,0-7.219,7.38h0a14.746,14.746,0,0,0-.887,5.038Z" transform="translate(-168.391 -43.251)"/>
      <path class="i" d="M211,23.185h0a4.675,4.675,0,0,1,1,4.036l-.336,1.512a.632.632,0,0,0,1.092.554l1.63-1.855a4.8,4.8,0,0,0,.5-5.659h0a13.334,13.334,0,0,1-1.316-2.894l-.751-2.369a.5.5,0,0,0-.944-.022l-1.386,3.753A2.966,2.966,0,0,0,211,23.185Z" transform="translate(-204.178 -16.162)"/>
    </g>
    <path class="f" d="M224.8,212.479v.534a2,2,0,0,0,1.925,2.027,1.962,1.962,0,0,0,2-1.962h0a.459.459,0,0,1,.813-.292,5.187,5.187,0,0,1,1.176,3.354,5.212,5.212,0,1,1-7.6-4.69A1.157,1.157,0,0,1,224.8,212.479Z" transform="translate(-188.141 -166.678)"/>
  </g>
</svg>